<svg width="21" height="23" viewBox="0 0 21 23" fill="none" xmlns="http://www.w3.org/2000/svg">
<path d="M0 22.7409H11.3684V21.5101L8.55061 20.668V13.6397L9.52227 13.8988C10.753 14.2551 11.9514 14.417 13.085 14.417C17.4251 14.417 20.664 11.8583 20.664 7.42105C20.664 2.95142 17.0688 0.457489 11.0769 0.457489H0V1.68826L2.65587 2.53036V20.668L0 21.5101V22.7409ZM8.55061 2.49798H10.5911C13.7976 2.49798 14.6397 3.34008 14.6397 7.42105C14.6397 11.081 14.1215 12.247 11.336 12.247C11.0121 12.247 10.6235 12.247 10.2348 12.2146L8.55061 12.085V2.49798Z" fill="#100A30"/>
</svg>
