<svg width="92" height="24" viewBox="0 0 92 24" fill="none" xmlns="http://www.w3.org/2000/svg">
<g clip-path="url(#clip0)">
<path d="M0 23.7409H11.3684V22.5101L8.55061 21.668V14.6397L9.52227 14.8988C10.753 15.2551 11.9514 15.417 13.085 15.417C17.4251 15.417 20.664 12.8583 20.664 8.42105C20.664 3.95142 17.0688 1.45749 11.0769 1.45749H0V2.68826L2.65587 3.53036V21.668L0 22.5101V23.7409ZM8.55061 3.49798H10.5911C13.7976 3.49798 14.6397 4.34008 14.6397 8.42105C14.6397 12.081 14.1215 13.247 11.336 13.247C11.0121 13.247 10.6235 13.247 10.2348 13.2146L8.55061 13.085V3.49798Z" fill="#100A30"/>
<path d="M24.8996 24C27.1344 24 29.0129 22.3482 29.9522 20.7287C29.9522 22.7692 31.2801 23.9352 33.4178 23.9352C35.0048 23.9352 36.0413 23.3522 36.8834 22.8664V21.5709C35.102 21.4089 34.8105 21.2794 34.8105 20.3077V14.8664C34.8105 9.19838 32.4461 7.51417 28.106 7.51417C25.2234 7.51417 21.3044 8.71255 21.3044 11.6599C21.3044 13.1174 22.2437 14.1538 23.6364 14.1538C24.8996 14.1538 25.8388 13.2794 25.8388 12.1458C25.8388 11.1417 25.3206 10.2024 24.0574 9.94332V9.87854C24.5109 9.74899 25.2882 9.61943 26.357 9.61943C28.7538 9.61943 29.9522 10.17 29.9522 12.4696V14.8664L27.1991 15.3522C22.7943 16.0972 20.8186 17.4575 20.8186 20.2753C20.8186 22.5425 22.5676 24 24.8996 24ZM27.2315 21.1498C26.2599 21.1498 25.6769 20.6964 25.6769 19.4332C25.6769 18.0405 26.1951 17.3603 27.8793 16.7449L29.9522 16V19.6275C29.2072 20.5992 28.3004 21.1498 27.2315 21.1498Z" fill="#100A30"/>
<path d="M47.5673 23.7409H55.956V21.9595H54.5633L49.122 13.5709L53.041 9.81377H55.1139V8.03239H47.5349V9.81377H49.6078L44.2313 16.4211V0H43.0977L36.8791 2.42915V3.1417L39.373 4.53441V21.9595H37.2677V23.7409H45.6564V21.9595H44.2313V18.2672L45.9155 16.6478L49.0896 21.9595H47.5673V23.7409Z" fill="#100A30"/>
<path d="M66.8677 23.7409H75.2563V21.9595H73.8636L68.4223 13.5709L72.3414 9.81377H74.4142V8.03239H66.8353V9.81377H68.9082L63.5316 16.4211V0H62.398L56.1794 2.42915V3.1417L58.6733 4.53441V21.9595H56.5681V23.7409H64.9568V21.9595H63.5316V18.2672L65.2159 16.6478L68.3899 21.9595H66.8677V23.7409Z" fill="#100A30"/>
<path d="M83.3738 24C88.3616 24 91.892 19.919 91.892 15.7409C91.892 11.5628 88.3616 7.51417 83.3738 7.51417C78.3859 7.51417 74.8555 11.5628 74.8555 15.7409C74.8555 19.919 78.3859 24 83.3738 24ZM83.3738 22.1862C81.4304 22.1862 80.2644 21.1174 80.2644 15.7409C80.2644 10.332 81.4628 9.32794 83.3738 9.32794C85.2847 9.32794 86.4831 10.2996 86.4831 15.7409C86.4831 21.1174 85.3171 22.1862 83.3738 22.1862Z" fill="#100A30"/>
</g>
<defs>
<clipPath id="clip0">
<rect width="92" height="24" fill="white"/>
</clipPath>
</defs>
</svg>
