<svg width="24" height="24" viewBox="0 0 24 24" fill="none" xmlns="http://www.w3.org/2000/svg">
<g clip-path="url(#clip0)">
<g opacity="0.08">
<path d="M23.5749 2.18881C23.2755 1.98768 22.7766 1.98768 22.4773 2.18881C21.7788 2.69163 20.9805 3.09389 20.1822 3.39559C18.1865 1.58543 15.0931 1.48486 12.9976 3.39559C11.7004 4.40123 11.0019 5.9097 11.0019 7.51873C8.10809 7.3176 5.51365 5.80913 3.81729 3.39559C3.61772 3.09389 3.31836 2.99333 2.91922 2.99333C2.52008 2.99333 2.22072 3.29502 2.12093 3.59671C2.02115 3.69728 1.02329 6.11082 1.12307 9.02719C1.22286 11.5413 2.22072 14.7594 5.9128 17.0723C4.41601 17.7763 2.71965 18.078 1.02329 18.078C0.624144 18.078 0.125215 18.3797 0.0254288 18.7819C-0.0743571 19.1842 0.125215 19.687 0.524358 19.8881C3.01901 21.296 5.71323 22 8.20787 22C10.7025 22 13.0974 21.3966 15.2927 20.0893C19.5835 17.6757 21.9783 13.0498 21.9783 7.51873C21.9783 7.3176 21.9783 7.21703 21.9783 7.0159C22.9762 5.9097 23.6747 4.60236 23.974 3.19446C24.0738 2.7922 23.8743 2.38994 23.5749 2.18881Z" fill="#100A30"/>
</g>
</g>
<defs>
<clipPath id="clip0">
<rect width="24" height="24" fill="white"/>
</clipPath>
</defs>
</svg>
