<svg width="24" height="24" viewBox="0 0 24 24" fill="none" xmlns="http://www.w3.org/2000/svg">
<path opacity="0.08" d="M22 10.9C21.7006 6.1 17.908 2.2 13.0176 2H12.5186C11.0215 2 9.62428 2.3 8.32682 3C5.03328 4.6 3.0372 7.9 3.0372 11.5C3.0372 12.8 3.33661 14.2 3.83563 15.4L2.03915 20.7C1.93935 21.1 2.03915 21.5 2.23876 21.7C2.53817 21.9 2.73778 22 3.0372 22C3.137 22 3.2368 22 3.33661 21.9L8.62623 20.1C9.82388 20.6 11.1213 20.9 12.5186 20.9C16.1115 20.9 19.4051 18.9 21.002 15.7C21.7006 14.4 22 12.9 22 11.4V10.9Z" fill="#100A30"/>
</svg>
