<svg width="395" height="250" viewBox="0 0 395 250" fill="none" xmlns="http://www.w3.org/2000/svg">
<mask id="mask0" mask-type="alpha" maskUnits="userSpaceOnUse" x="0" y="0" width="395" height="250">
<path d="M1.29932 1.25H393.701V248.75H1.29932V1.25Z" fill="#F8F7F9" stroke="#B1A6F1" stroke-width="2"/>
</mask>
<g mask="url(#mask0)">
<path d="M31.3054 740.033L227.387 642.819C233.607 639.588 283.225 615.205 431.938 543.526C580.65 471.848 573.408 368.658 551.197 326.021C538.703 300.781 512.107 247.423 505.674 235.905C499.241 224.389 510.647 213.201 517.154 209.046C584.188 169.581 651.651 113.642 632.264 70.3138C555.188 -101.939 509.764 -205.021 471.999 -259.697C434.235 -314.375 391.171 -296.649 378.969 -292.631C369.208 -289.419 294.709 -248.087 258.68 -227.824L244.608 -253.017C238.173 -264.535 225.37 -261.597 219.771 -258.69C5.74677 -149.06 -429.766 74.0785 -459.623 89.5882C-489.48 105.098 -487.659 122.725 -483.015 129.6C-425.336 234.296 -288.696 480.926 -203.571 629.873C-118.446 778.819 -11.5179 765.374 31.3054 740.033Z" fill="#8CE3C3"/>
<path d="M260.456 -365.911C391.572 -426.117 478.463 -339.924 503.238 -294.312C519.754 -340.454 620.5 -399.985 708.034 -373.866C894.661 -318.179 853.773 -144.581 836.856 -108.157C788.821 -4.73672 561.043 306.054 524.708 329.389C488.375 352.725 273.67 87.5461 224.124 -4.73669C174.576 -97.0196 83.7392 -284.766 260.456 -365.911Z" fill="#19C787"/>
<path d="M-175.941 362.818C-149.15 431.22 -54.656 448.321 -10.7577 448.321L-10.8259 502.731C-10.8616 531.233 59.0463 507.914 81.9498 461.276C158.526 478.117 502.58 450.911 528.302 300.634C539.838 233.234 513.694 162.016 417.006 107.605C320.319 53.1941 115.185 64.2156 -10.3487 121.855C-182.458 200.881 -209.429 277.315 -175.941 362.818Z" fill="#100A30"/>
</g>
</svg>
